<svg xmlns="http://www.w3.org/2000/svg" viewBox="0 0 128 128" preserveAspectRatio="xMidYMid meet" enable-background="new 0 0 128 128"><g transform="translate(0,-924.36218)"><path style="fill:#000000" d="m 57.493421,1052.0225 c -15.8896,-1.6607 -31.25202,-9.577 -41.54881,-21.4102 -21.259481,-24.4318 -21.259481,-60.12086 0,-84.55259 5.25759,-6.04211 12.63615,-11.64127 20.17514,-15.30976 20.3166,-9.88612 44.660089,-8.20096 63.389439,4.38808 7.27773,4.89177 12.9913,10.61976 17.80808,17.85305 14.24364,21.38945 14.24364,49.30042 0,70.68982 -13.20173,19.8248 -36.35617,30.7943 -59.82385,28.3416 z m 16.20788,-3.253 c 17.120579,-2.9055 31.545019,-12.207 41.149049,-26.5346 13.85891,-20.6751 13.85891,-47.12269 0,-67.79782 -9.74773,-14.54194 -24.43198,-23.8726 -42.031969,-26.70792 -3.624971,-0.58398 -14.000681,-0.58749 -17.65839,-0.006 -17.26953,2.74556 -32.40377,12.31615 -41.90737,26.5014 -9.423591,14.06583 -12.606651,30.56591 -9.066851,47.00004 4.81465,22.3529 22.108351,40.4255 44.26404,46.2578 2.136661,0.5624 5.15625,1.1888 6.71018,1.3918 1.55394,0.2031 3.30212,0.4372 3.88485,0.5203 2.04077,0.2908 11.68279,-0.1203 14.65646,-0.625 z m -15.18621,-5.7438 c -8.38747,-1.0436 -16.91449,-3.956 -23.43997,-8.0059 l -1.36699,-0.8484 1.97155,-0.2316 c 6.09458,-0.7162 13.3163,-4.306 18.15343,-9.0238 l 2.20054,-2.1462 0.9332,1.8413 c 1.31451,2.5936 4.76541,5.9134 7.55209,7.265 3.38862,1.6437 6.01771,2.2124 10.27205,2.222 8.810529,0.02 16.497679,-3.4308 23.205789,-10.417 4.39324,-4.5754 6.83775,-9.2769 7.99502,-15.3766 2.13852,-11.27161 -2.71116,-20.19163 -12.1928,-22.42627 -2.91262,-0.68645 -7.0227,-0.68853 -9.69334,-0.005 -2.44033,0.62466 -7.589009,3.00083 -9.256559,4.27199 -0.63129,0.48123 -1.1478,0.7101 -1.1478,0.50861 0,-0.2015 1.82765,-8.82678 4.06143,-19.16729 2.233789,-10.34051 4.061429,-19.32554 4.061429,-19.96672 0,-1.5485 -0.51517,-1.68788 -3.802029,-1.02862 -1.50236,0.30133 -5.59223,0.88389 -9.08859,1.29458 -8.04377,0.94483 -8.80685,1.14198 -9.33268,2.41126 -0.49716,1.20006 -0.0456,2.66413 0.99311,3.21995 0.38501,0.20602 1.56313,0.37458 2.61804,0.37458 1.43134,0 2.16439,0.19377 2.88901,0.76367 0.95034,0.74742 0.96771,0.82818 0.81646,3.79597 -0.1023,2.00718 -1.15005,7.5686 -3.09925,16.45061 -1.61958,7.38008 -2.98107,13.46703 -3.02553,13.52657 -0.0445,0.0595 -0.89722,-0.75483 -1.89502,-1.8097 -4.18154,-4.42067 -11.42423,-6.30177 -17.87849,-4.64344 -2.50227,0.64292 -6.59711,2.52386 -8.81303,4.04822 -0.87523,0.60208 -1.59133,1.01764 -1.59133,0.92346 0,-0.0942 1.90819,-9.00871 4.24041,-19.81007 4.61498,-21.37361 4.60454,-21.28077 2.35008,-20.89241 -4.28276,0.73776 -13.49511,2.01113 -13.92857,1.92526 -0.8421,-0.16681 6.13172,-6.61073 9.83398,-9.08675 6.37981,-4.26673 13.12274,-7.07702 20.55615,-8.56731 5.66786,-1.13632 14.97675,-1.13632 20.64461,0 22.219819,4.45474 38.760489,20.85895 43.598589,43.2389 1.13655,5.25743 1.13655,16.10524 0,21.36268 -2.58339,11.95017 -8.23751,21.90627 -17.01486,29.96067 -7.19002,6.5979 -16.52154,11.2738 -26.393819,13.2257 -3.688641,0.7293 -12.917281,1.2038 -15.986311,0.822 z m -28.56245,-14.5068 c -3.19491,-1.1288 -5.34166,-4.5105 -5.34166,-8.4145 0,-2.8881 3.34043,-18.304 4.46686,-20.61434 4.03551,-8.27699 15.85862,-11.56954 20.9161,-5.82482 2.31689,2.63171 3.2636,7.21496 2.54617,12.32646 -1.66563,11.8672 -7.03083,20.1139 -14.62851,22.4853 -2.47394,0.7721 -5.84208,0.7899 -7.95896,0.042 z m 43.30649,0.1188 c -3.58071,-1.3341 -5.55225,-4.319 -5.55823,-8.4152 -0.002,-1.4846 0.64321,-5.4562 1.7332,-10.6657 1.36393,-6.519 1.97977,-8.7564 2.8695,-10.42549 3.84666,-7.21596 13.893629,-10.68882 19.395119,-6.70417 2.79838,2.02682 3.99782,5.22285 3.96016,10.55226 -0.0767,10.8501 -5.57161,21.3275 -13.01078,24.8082 -1.9244,0.9004 -2.92614,1.1361 -5.222509,1.2289 -1.83321,0.074 -3.31153,-0.06 -4.16646,-0.3788 z m -59.94614,-19.1149 c -1.25126,-3.0543 -2.57045,-7.4722 -3.26612,-10.93819 -1.122191,-5.5909 -1.115931,-14.93617 0.0138,-20.56935 1.29745,-6.46953 3.68144,-12.64642 7.02173,-18.1932 1.21995,-2.0258 1.22661,-2.0304 2.93999,-2.0304 0.94451,0 2.10937,0.14905 2.58858,0.33121 1.17987,0.44852 1.77601,2.35558 1.47324,4.71296 -0.19927,1.55158 -9.85479,46.34687 -10.21549,47.39317 -0.0669,0.1943 -0.31702,-0.1236 -0.55571,-0.7062 z" /></g></svg>